<?xml version="1.0" standalone="no"?>
<!DOCTYPE svg PUBLIC "-//W3C//DTD SVG 20010904//EN"
 "https://www.w3.org/TR/2001/REC-SVG-20010904/DTD/svg10.dtd">
<svg version="1.0" xmlns="https://www.w3.org/2000/svg"
 width="650.000000pt" height="650.000000pt" viewBox="0 0 650.000000 650.000000"
 preserveAspectRatio="xMidYMid meet">
<metadata>
Created by potrace 1.14, written by Peter Selinger 2001-2017
</metadata>
<g transform="translate(0.000000,650.000000) scale(0.100000,-0.100000)"
fill="#000000" stroke="none">
<path d="M3088 6415 c-2 -1 -48 -5 -103 -9 -55 -3 -111 -8 -125 -10 -14 -2
-47 -7 -73 -11 -27 -4 -59 -8 -70 -11 -12 -2 -35 -6 -52 -8 -48 -7 -245 -54
-305 -73 -30 -9 -57 -17 -60 -18 -23 -5 -70 -21 -220 -77 -115 -42 -321 -142
-451 -218 -125 -74 -343 -223 -374 -256 -5 -5 -32 -28 -60 -49 -141 -110 -363
-341 -491 -510 -65 -86 -194 -272 -194 -280 0 -2 -18 -34 -40 -70 -57 -93
-133 -246 -191 -388 -28 -67 -52 -126 -53 -132 -1 -5 -17 -55 -35 -110 -68
-209 -110 -412 -138 -680 -19 -176 -6 -630 22 -785 3 -14 10 -53 15 -87 6 -34
12 -68 15 -75 2 -7 6 -24 9 -38 19 -116 102 -380 170 -544 297 -714 847 -1300
1546 -1647 286 -142 661 -260 940 -295 25 -3 56 -7 70 -10 72 -13 207 -19 400
-19 264 0 375 8 560 42 47 8 96 17 110 20 14 2 43 9 65 15 22 5 47 11 55 13
67 13 232 65 368 116 715 270 1341 828 1694 1509 153 297 270 632 314 908 4
20 8 44 9 52 2 8 6 40 10 70 4 30 9 66 11 80 18 113 25 469 12 635 -8 99 -26
251 -33 275 -2 8 -7 30 -10 48 -38 226 -115 476 -222 722 -103 237 -275 515
-456 740 -91 112 -348 364 -470 462 -366 291 -773 493 -1232 612 -85 22 -317
63 -400 71 -38 4 -79 9 -90 12 -22 5 -442 12 -447 8z"/>
</g>
</svg>
